# Blender 3.3.1
# www.blender.org
mtllib CannonWagon.mtl
o mesh-0
v 44.028263 30.116486 -69.468819
v 44.028263 30.116491 -78.726898
v 49.329937 17.317120 -69.468819
v 49.329933 17.317120 -78.726883
v 44.028259 4.517743 -69.468811
v 44.028259 4.517743 -78.726883
v 31.228876 -0.783932 -69.468819
v 31.228872 -0.783932 -78.726891
v -50.268238 112.967949 49.603859
v -67.391899 14.363246 49.603874
v -0.268241 125.974045 49.603848
v 55.556847 14.363237 49.603848
v 49.731754 112.967949 49.603836
v 55.556850 14.363237 69.949318
v 49.731758 112.967949 69.949318
v -50.268234 112.967949 69.949333
v -50.268238 112.967949 49.603859
v -0.268236 125.974045 69.949326
v -0.268241 125.974045 49.603848
v 49.731758 112.967949 69.949318
v 49.731754 112.967949 49.603836
v -50.268238 112.967949 49.603859
v -50.268234 112.967949 69.949333
v -67.391899 14.363246 49.603874
v -67.391899 14.363246 69.949333
v -67.391899 14.363246 49.603874
v -67.391899 14.363246 69.949333
v 55.556847 14.363237 49.603848
v 55.556850 14.363237 69.949318
v 13.127860 17.317122 69.468803
v 18.429531 30.116488 69.468811
v 13.127861 17.317122 78.726883
v 18.429529 30.116493 78.726883
v 18.429529 4.517745 69.468803
v 13.127860 17.317122 69.468803
v 18.429531 4.517745 78.726883
v 13.127861 17.317122 78.726883
v 31.228910 -0.783932 69.468803
v 18.429529 4.517745 69.468803
v 31.228909 -0.783932 78.726875
v 18.429531 4.517745 78.726883
v 18.429495 30.116493 -78.726883
v 18.429501 30.116488 -69.468811
v 13.127829 17.317122 -78.726883
v 13.127831 17.317122 -69.468803
v -67.391914 14.363246 -49.550598
v -50.268269 112.967949 -49.550602
v 55.556824 14.363237 -49.550625
v 49.731731 112.967949 -49.550625
v 31.228909 -0.783932 78.726875
v 44.028282 4.517743 78.726868
v 31.228910 -0.783932 69.468803
v 44.028282 4.517743 69.468796
v -41.700527 35.418182 -78.726883
v -41.700527 35.418171 -69.468803
v -54.499905 30.116493 -78.726875
v -54.499905 30.116491 -69.468803
v -28.901148 30.116508 -78.726875
v -28.901148 30.116503 -69.468796
v -41.700527 35.418182 -78.726883
v -41.700527 35.418171 -69.468803
v -23.599472 17.317135 -78.726868
v -23.599474 17.317125 -69.468788
v -28.901148 30.116508 -78.726875
v -28.901148 30.116503 -69.468796
v -28.901155 4.517748 -78.726868
v -28.901155 4.517748 -69.468796
v -23.599472 17.317135 -78.726868
v -23.599474 17.317125 -69.468788
v 13.127829 17.317122 -78.726883
v 13.127831 17.317122 -69.468803
v 18.429497 4.517745 -78.726883
v 18.429499 4.517745 -69.468803
v 18.429497 4.517745 -78.726883
v 18.429499 4.517745 -69.468803
v 31.228872 -0.783932 -78.726891
v 31.228876 -0.783932 -69.468819
v 44.028263 30.116491 -78.726898
v 44.028263 30.116486 -69.468819
v 31.228880 35.418175 -78.726898
v 31.228882 35.418167 -69.468819
v 31.228880 35.418175 -78.726898
v 31.228882 35.418167 -69.468819
v 18.429495 30.116493 -78.726883
v 18.429501 30.116488 -69.468811
v -41.700527 -0.783927 -78.726868
v -41.700527 -0.783927 -69.468803
v -28.901155 4.517748 -78.726868
v -28.901155 4.517748 -69.468796
v -54.499905 4.517750 -78.726875
v -54.499905 4.517750 -69.468803
v -41.700527 -0.783927 -78.726868
v -41.700527 -0.783927 -69.468803
v -59.801586 17.317127 -78.726875
v -59.801586 17.317127 -69.468803
v -54.499905 4.517750 -78.726875
v -54.499905 4.517750 -69.468803
v -54.499905 30.116493 -78.726875
v -54.499905 30.116491 -69.468803
v -59.801586 17.317127 -78.726875
v -59.801586 17.317127 -69.468803
v -0.268236 125.974045 69.949326
v 55.556850 14.363237 69.949318
v -0.268264 125.974045 -69.896080
v 49.731728 112.967949 -69.896088
v -0.268260 125.974045 -49.550613
v 49.731731 112.967949 -49.550625
v 55.556820 14.363237 -69.896095
v -67.391914 14.363246 -69.896072
v 55.556824 14.363237 -49.550625
v -67.391914 14.363246 -69.896072
v -50.268272 112.967949 -69.896072
v -67.391914 14.363246 -49.550598
v -50.268269 112.967949 -49.550602
v -50.268272 112.967949 -69.896072
v 49.731728 112.967949 -69.896088
v 55.556820 14.363237 -69.896095
v 49.731731 112.967949 -49.550625
v 55.556824 14.363237 -49.550625
v -54.499874 30.116491 69.468819
v -41.700497 35.418171 69.468819
v -54.499874 30.116493 78.726891
v -41.700497 35.418182 78.726898
v -41.700497 35.418171 69.468819
v -28.901121 30.116503 69.468811
v -41.700497 35.418182 78.726898
v -28.901115 30.116508 78.726891
v -28.901121 30.116503 69.468811
v -23.599445 17.317125 69.468803
v -28.901115 30.116508 78.726891
v -23.599442 17.317135 78.726883
v -23.599445 17.317125 69.468803
v -28.901123 4.517748 69.468811
v -23.599442 17.317135 78.726883
v -28.901117 4.517748 78.726883
v -28.901123 4.517748 69.468811
v -41.700500 -0.783927 69.468819
v -28.901117 4.517748 78.726883
v -41.700500 -0.783927 78.726883
v -41.700500 -0.783927 69.468819
v -54.499878 4.517750 69.468819
v -41.700500 -0.783927 78.726883
v -54.499878 4.517750 78.726891
v -54.499878 4.517750 69.468819
v -59.801556 17.317127 69.468819
v -54.499878 4.517750 78.726891
v -59.801556 17.317127 78.726891
v -59.801556 17.317127 69.468819
v -54.499874 30.116491 69.468819
v -59.801556 17.317127 78.726891
v -54.499874 30.116493 78.726891
v -61.447124 18.035053 -55.548714
v -61.447102 18.035053 55.601990
v 49.435654 18.035046 -55.548740
v 49.435677 18.035046 55.601963
v -57.819035 38.839783 -55.548717
v -57.819012 38.839783 55.601986
v -61.447124 18.035053 -55.548714
v -61.447102 18.035053 55.601990
v 48.174545 38.839779 -55.548740
v 48.174568 38.839779 55.601963
v -57.819035 38.839783 -55.548717
v -57.819012 38.839783 55.601986
v 49.435654 18.035046 -55.548740
v 49.435677 18.035046 55.601963
v 48.174545 38.839779 -55.548740
v 48.174568 38.839779 55.601963
v 18.429531 30.116488 69.468811
v 31.228909 35.418167 69.468803
v 18.429529 30.116493 78.726883
v 31.228910 35.418175 78.726883
v 31.228909 35.418167 69.468803
v 44.028294 30.116486 69.468803
v 31.228910 35.418175 78.726883
v 44.028294 30.116491 78.726883
v 44.028294 30.116486 69.468803
v 49.329967 17.317120 69.468803
v 44.028294 30.116491 78.726883
v 49.329964 17.317120 78.726868
v -41.700527 35.418182 -78.726883
v -41.700531 17.317127 -78.726868
v -28.901148 30.116508 -78.726875
v -28.901148 30.116508 -78.726875
v -23.599472 17.317135 -78.726868
v -23.599472 17.317135 -78.726868
v -28.901155 4.517748 -78.726868
v -28.901155 4.517748 -78.726868
v -41.700527 -0.783927 -78.726868
v 31.228909 17.317122 78.726875
v 18.429529 30.116493 78.726883
v 31.228910 35.418175 78.726883
v 31.228907 17.317122 69.468803
v 44.028282 4.517743 69.468796
v 49.329967 17.317120 69.468803
v 13.127861 17.317122 78.726883
v 18.429529 30.116493 78.726883
v 18.429531 4.517745 78.726883
v 13.127861 17.317122 78.726883
v 31.228909 -0.783932 78.726875
v 18.429531 4.517745 78.726883
v 44.028282 4.517743 78.726868
v 31.228909 -0.783932 78.726875
v 49.329964 17.317120 78.726868
v 44.028282 4.517743 78.726868
v -54.499905 30.116493 -78.726875
v -41.700527 35.418182 -78.726883
v -28.901155 4.517748 -69.468796
v -41.700531 17.317127 -69.468803
v -23.599474 17.317125 -69.468788
v -41.700527 -0.783927 -69.468803
v -28.901155 4.517748 -69.468796
v -54.499905 4.517750 -69.468803
v -41.700527 -0.783927 -69.468803
v -59.801586 17.317127 -69.468803
v -54.499905 4.517750 -69.468803
v -41.700500 17.317127 69.468819
v -59.801556 17.317127 69.468819
v -54.499878 4.517750 69.468819
v -54.499878 4.517750 69.468819
v -41.700500 -0.783927 69.468819
v -41.700500 -0.783927 69.468819
v -28.901123 4.517748 69.468811
v -28.901123 4.517748 69.468811
v -23.599445 17.317125 69.468803
v -41.700500 17.317127 78.726883
v -59.801556 17.317127 78.726891
v -54.499874 30.116493 78.726891
v -59.801586 17.317127 -78.726875
v -54.499905 30.116493 -78.726875
v -54.499905 4.517750 -78.726875
v -59.801586 17.317127 -78.726875
v 13.127860 17.317122 69.468803
v 18.429529 4.517745 69.468803
v 18.429495 30.116493 -78.726883
v 31.228876 17.317122 -78.726891
v 31.228880 35.418175 -78.726898
v -41.700527 -0.783927 -78.726868
v -54.499905 4.517750 -78.726875
v 31.228880 35.418175 -78.726898
v 44.028263 30.116491 -78.726898
v 44.028263 30.116491 -78.726898
v 49.329933 17.317120 -78.726883
v -0.268260 125.974045 -49.550613
v 49.329933 17.317120 -78.726883
v 44.028259 4.517743 -78.726883
v 44.028259 4.517743 -78.726883
v 31.228872 -0.783932 -78.726891
v 31.228872 -0.783932 -78.726891
v 18.429497 4.517745 -78.726883
v 18.429497 4.517745 -78.726883
v 13.127829 17.317122 -78.726883
v 13.127829 17.317122 -78.726883
v 18.429495 30.116493 -78.726883
v 44.028259 4.517743 -69.468811
v 31.228878 17.317122 -69.468819
v 49.329937 17.317120 -69.468819
v 31.228876 -0.783932 -69.468819
v 44.028259 4.517743 -69.468811
v 18.429499 4.517745 -69.468803
v 31.228876 -0.783932 -69.468819
v 13.127831 17.317122 -69.468803
v 18.429499 4.517745 -69.468803
v 18.429529 4.517745 69.468803
v 31.228910 -0.783932 69.468803
v 31.228910 -0.783932 69.468803
v 44.028282 4.517743 69.468796
v 31.228910 35.418175 78.726883
v 44.028294 30.116491 78.726883
v 44.028294 30.116491 78.726883
v 49.329964 17.317120 78.726868
v -54.499878 4.517750 78.726891
v -59.801556 17.317127 78.726891
v -41.700500 -0.783927 78.726883
v -54.499878 4.517750 78.726891
v -28.901117 4.517748 78.726883
v -41.700500 -0.783927 78.726883
v -23.599442 17.317135 78.726883
v -28.901117 4.517748 78.726883
v -28.901115 30.116508 78.726891
v -23.599442 17.317135 78.726883
v -41.700497 35.418182 78.726898
v -28.901115 30.116508 78.726891
v -54.499874 30.116493 78.726891
v -41.700497 35.418182 78.726898
v 49.731728 112.967949 -69.896088
v -0.268264 125.974045 -69.896080
v 55.556820 14.363237 -69.896095
v 49.731758 112.967949 69.949318
vn 1.0000 -0.0000 -0.0000
vn 0.9239 0.3827 -0.0000
vn 0.7071 -0.7071 -0.0000
vn 0.3827 -0.9239 -0.0000
vn -0.0000 -0.0000 -1.0000
vn 0.7193 0.0425 -0.6934
vn 0.6392 0.0378 -0.7681
vn 0.9983 0.0590 -0.0000
vn -0.0000 1.0000 -0.0000
vn -0.2517 0.9678 -0.0000
vn -0.1556 0.5983 0.7860
vn 0.2517 0.9678 -0.0000
vn -0.9853 0.1711 -0.0000
vn -0.0000 -1.0000 -0.0000
vn -0.0000 -0.7468 0.6651
vn -0.9239 0.3827 -0.0000
vn -0.9239 -0.3827 -0.0000
vn -0.3827 -0.9239 -0.0000
vn -0.0000 -0.0000 1.0000
vn -0.3827 0.9239 -0.0000
vn 0.3827 0.9239 -0.0000
vn 0.9239 -0.3827 -0.0000
vn -0.0000 -0.7468 -0.6651
vn -0.1556 0.5983 -0.7860
vn -0.9851 0.1718 -0.0000
vn 0.9982 0.0605 -0.0000
vt 0.980469 0.066406
vt 0.980469 0.449219
vt 0.804688 0.066406
vt 0.804688 0.449219
vt 0.980469 0.066406
vt 0.980469 0.449219
vt 0.804688 0.066406
vt 0.804688 0.449219
vt 0.000000 0.992188
vt 0.000000 0.511719
vt 0.500000 0.992188
vt 1.000000 0.511719
vt 1.000000 0.992188
vt 0.000000 0.511719
vt 0.000000 0.992188
vt 0.000000 0.992188
vt 1.000000 0.992188
vt 0.000000 0.750000
vt 1.000000 0.750000
vt 0.000000 0.511719
vt 1.000000 0.511719
vt 1.000000 0.511719
vt 0.000000 0.511719
vt 1.000000 0.992188
vt 0.000000 0.992188
vt 1.000000 0.511719
vt 0.000000 0.511719
vt 1.000000 0.992188
vt 0.000000 0.992188
vt 0.804688 0.449219
vt 0.980469 0.449219
vt 0.804688 0.066406
vt 0.980469 0.066406
vt 0.980469 0.066406
vt 0.804688 0.066406
vt 0.980469 0.449219
vt 0.804688 0.449219
vt 0.804688 0.449219
vt 0.980469 0.449219
vt 0.804688 0.066406
vt 0.980469 0.066406
vt 0.980469 0.066406
vt 0.980469 0.449219
vt 0.804688 0.066406
vt 0.804688 0.449219
vt 1.000000 0.511719
vt 1.000000 0.992188
vt 0.000000 0.511719
vt 0.000000 0.992188
vt 0.804688 0.449219
vt 0.980469 0.449219
vt 0.804688 0.066406
vt 0.980469 0.066406
vt 0.980469 0.066406
vt 0.980469 0.449219
vt 0.804688 0.066406
vt 0.804688 0.449219
vt 0.804688 0.449219
vt 0.804688 0.066406
vt 0.980469 0.449219
vt 0.980469 0.066406
vt 0.980469 0.066406
vt 0.980469 0.449219
vt 0.804688 0.066406
vt 0.804688 0.449219
vt 0.804688 0.449219
vt 0.804688 0.066406
vt 0.980469 0.449219
vt 0.980469 0.066406
vt 0.804688 0.449219
vt 0.804688 0.066406
vt 0.980469 0.449219
vt 0.980469 0.066406
vt 0.980469 0.066406
vt 0.980469 0.449219
vt 0.804688 0.066406
vt 0.804688 0.449219
vt 0.980469 0.066406
vt 0.980469 0.449219
vt 0.804688 0.066406
vt 0.804688 0.449219
vt 0.804688 0.449219
vt 0.804688 0.066406
vt 0.980469 0.449219
vt 0.980469 0.066406
vt 0.980469 0.066406
vt 0.980469 0.449219
vt 0.804688 0.066406
vt 0.804688 0.449219
vt 0.804688 0.449219
vt 0.804688 0.066406
vt 0.980469 0.449219
vt 0.980469 0.066406
vt 0.980469 0.066406
vt 0.980469 0.449219
vt 0.804688 0.066406
vt 0.804688 0.449219
vt 0.804688 0.449219
vt 0.804688 0.066406
vt 0.980469 0.449219
vt 0.980469 0.066406
vt 0.500000 0.992188
vt 1.000000 0.511719
vt 0.000000 0.750000
vt 0.000000 0.511719
vt 1.000000 0.750000
vt 1.000000 0.511719
vt 0.000000 0.992188
vt 0.000000 0.511719
vt 1.000000 0.992188
vt 0.000000 0.992188
vt 0.000000 0.511719
vt 1.000000 0.992188
vt 1.000000 0.511719
vt 0.000000 0.992188
vt 0.000000 0.992188
vt 0.000000 0.511719
vt 1.000000 0.992188
vt 1.000000 0.511719
vt 0.804688 0.449219
vt 0.980469 0.449219
vt 0.804688 0.066406
vt 0.980469 0.066406
vt 0.980469 0.066406
vt 0.804688 0.066406
vt 0.980469 0.449219
vt 0.804688 0.449219
vt 0.804688 0.449219
vt 0.980469 0.449219
vt 0.804688 0.066406
vt 0.980469 0.066406
vt 0.980469 0.066406
vt 0.804688 0.066406
vt 0.980469 0.449219
vt 0.804688 0.449219
vt 0.804688 0.449219
vt 0.980469 0.449219
vt 0.804688 0.066406
vt 0.980469 0.066406
vt 0.980469 0.066406
vt 0.804688 0.066406
vt 0.980469 0.449219
vt 0.804688 0.449219
vt 0.804688 0.449219
vt 0.980469 0.449219
vt 0.804688 0.066406
vt 0.980469 0.066406
vt 0.980469 0.066406
vt 0.804688 0.066406
vt 0.980469 0.449219
vt 0.804688 0.449219
vt 1.000000 0.511719
vt 0.000000 0.511719
vt 1.000000 0.992188
vt 0.000000 0.992188
vt 1.000000 0.511719
vt 0.000000 0.511719
vt 1.000000 0.992188
vt 0.000000 0.992188
vt 1.000000 0.511719
vt 0.000000 0.511719
vt 1.000000 0.992188
vt 0.000000 0.992188
vt 1.000000 0.511719
vt 0.000000 0.511719
vt 1.000000 0.992188
vt 0.000000 0.992188
vt 0.980469 0.066406
vt 0.804688 0.066406
vt 0.980469 0.449219
vt 0.804688 0.449219
vt 0.804688 0.449219
vt 0.980469 0.449219
vt 0.804688 0.066406
vt 0.980469 0.066406
vt 0.980469 0.066406
vt 0.804688 0.066406
vt 0.980469 0.449219
vt 0.804688 0.449219
vt 0.984375 0.507812
vt 0.535156 0.265625
vt 0.984375 0.027344
vt 0.984375 0.507812
vt 0.984375 0.027344
vt 0.984375 0.507812
vt 0.984375 0.027344
vt 0.984375 0.507812
vt 0.984375 0.027344
vt 0.535156 0.265625
vt 0.984375 0.507812
vt 0.984375 0.027344
vt 0.535156 0.265625
vt 0.984375 0.507812
vt 0.984375 0.027344
vt 0.984375 0.507812
vt 0.984375 0.027344
vt 0.984375 0.507812
vt 0.984375 0.027344
vt 0.984375 0.507812
vt 0.984375 0.027344
vt 0.984375 0.507812
vt 0.984375 0.027344
vt 0.984375 0.507812
vt 0.984375 0.027344
vt 0.984375 0.507812
vt 0.984375 0.027344
vt 0.984375 0.027344
vt 0.535156 0.265625
vt 0.984375 0.507812
vt 0.984375 0.027344
vt 0.984375 0.507812
vt 0.984375 0.027344
vt 0.984375 0.507812
vt 0.984375 0.027344
vt 0.984375 0.507812
vt 0.535156 0.265625
vt 0.984375 0.507812
vt 0.984375 0.027344
vt 0.984375 0.507812
vt 0.984375 0.027344
vt 0.984375 0.507812
vt 0.984375 0.027344
vt 0.984375 0.507812
vt 0.984375 0.027344
vt 0.535156 0.265625
vt 0.984375 0.507812
vt 0.984375 0.027344
vt 0.984375 0.507812
vt 0.984375 0.027344
vt 0.984375 0.507812
vt 0.984375 0.027344
vt 0.984375 0.507812
vt 0.984375 0.027344
vt 0.984375 0.507812
vt 0.535156 0.265625
vt 0.984375 0.027344
vt 0.984375 0.507812
vt 0.984375 0.027344
vt 0.984375 0.507812
vt 0.984375 0.027344
vt 0.984375 0.507812
vt 0.984375 0.027344
vt 0.500000 0.992188
vt 0.984375 0.507812
vt 0.984375 0.027344
vt 0.984375 0.507812
vt 0.984375 0.027344
vt 0.984375 0.507812
vt 0.984375 0.027344
vt 0.984375 0.507812
vt 0.984375 0.027344
vt 0.984375 0.507812
vt 0.984375 0.027344
vt 0.984375 0.027344
vt 0.535156 0.265625
vt 0.984375 0.507812
vt 0.984375 0.027344
vt 0.984375 0.507812
vt 0.984375 0.027344
vt 0.984375 0.507812
vt 0.984375 0.027344
vt 0.984375 0.507812
vt 0.984375 0.507812
vt 0.984375 0.027344
vt 0.984375 0.507812
vt 0.984375 0.027344
vt 0.984375 0.507812
vt 0.984375 0.027344
vt 0.984375 0.507812
vt 0.984375 0.027344
vt 0.984375 0.507812
vt 0.984375 0.027344
vt 0.984375 0.507812
vt 0.984375 0.027344
vt 0.984375 0.507812
vt 0.984375 0.027344
vt 0.984375 0.507812
vt 0.984375 0.027344
vt 0.984375 0.507812
vt 0.984375 0.027344
vt 0.984375 0.507812
vt 0.984375 0.027344
vt 0.984375 0.507812
vt 0.984375 0.027344
vt 1.000000 0.992188
vt 0.500000 0.992188
vt 1.000000 0.511719
vt 1.000000 0.992188
s 1
usemtl VcanK_v
f 3/3/1 2/2/2 1/1/2
f 3/3/1 4/4/1 2/2/2
f 5/5/3 4/4/1 3/3/1
f 5/5/3 6/6/3 4/4/1
f 7/7/4 6/6/3 5/5/3
f 7/7/4 8/8/4 6/6/3
f 11/11/5 10/10/5 9/9/5
f 11/11/5 12/12/6 10/10/5
f 13/13/7 12/12/6 11/11/5
f 13/13/7 14/14/8 12/12/6
f 15/15/8 14/14/8 13/13/7
f 18/18/9 17/17/10 16/16/11
f 18/18/9 19/19/9 17/17/10
f 20/20/12 19/19/9 18/18/9
f 20/20/12 21/21/12 19/19/9
f 24/24/13 23/23/13 22/22/13
f 24/24/13 25/25/13 23/23/13
f 28/28/14 27/27/15 26/26/14
f 28/28/14 29/29/14 27/27/15
f 32/32/16 31/31/16 30/30/16
f 32/32/16 33/33/16 31/31/16
f 36/36/17 35/35/17 34/34/17
f 36/36/17 37/37/17 35/35/17
f 40/40/18 39/39/18 38/38/18
f 40/40/18 41/41/18 39/39/18
f 44/44/16 43/43/16 42/42/16
f 44/44/16 45/45/16 43/43/16
f 48/48/19 47/47/11 46/46/15
f 48/48/19 49/49/19 47/47/11
f 52/52/4 51/51/3 50/50/4
f 52/52/4 53/53/3 51/51/3
f 56/56/20 55/55/20 54/54/20
f 56/56/20 57/57/20 55/55/20
f 60/60/21 59/59/21 58/58/21
f 60/60/21 61/61/21 59/59/21
f 64/64/2 63/63/2 62/62/2
f 64/64/2 65/65/2 63/63/2
f 68/68/22 67/67/22 66/66/22
f 68/68/22 69/69/22 67/67/22
f 72/72/17 71/71/17 70/70/17
f 72/72/17 73/73/17 71/71/17
f 76/76/18 75/75/18 74/74/18
f 76/76/18 77/77/18 75/75/18
f 80/80/21 79/79/21 78/78/21
f 80/80/21 81/81/21 79/79/21
f 84/84/20 83/83/20 82/82/20
f 84/84/20 85/85/20 83/83/20
f 88/88/4 87/87/4 86/86/4
f 88/88/4 89/89/4 87/87/4
f 92/92/18 91/91/18 90/90/18
f 92/92/18 93/93/18 91/91/18
f 96/96/17 95/95/17 94/94/17
f 96/96/17 97/97/17 95/95/17
f 100/100/16 99/99/16 98/98/16
f 100/100/16 101/101/16 99/99/16
f 27/27/15 102/102/19 16/16/11
f 27/27/15 103/103/19 102/102/19
f 106/106/9 105/105/12 104/104/9
f 106/106/9 107/107/12 105/105/12
f 110/110/14 109/109/23 108/108/14
f 110/110/14 46/46/15 109/109/23
f 113/113/13 112/112/13 111/111/13
f 113/113/13 114/114/13 112/112/13
f 47/47/11 104/104/9 115/115/24
f 47/47/11 106/106/9 104/104/9
f 118/118/8 117/117/8 116/116/8
f 118/118/8 119/119/8 117/117/8
f 122/122/20 121/121/20 120/120/20
f 122/122/20 123/123/20 121/121/20
f 126/126/21 125/125/21 124/124/21
f 126/126/21 127/127/21 125/125/21
f 130/130/2 129/129/2 128/128/2
f 130/130/2 131/131/2 129/129/2
f 134/134/22 133/133/22 132/132/22
f 134/134/22 135/135/22 133/133/22
f 138/138/4 137/137/4 136/136/4
f 138/138/4 139/139/4 137/137/4
f 142/142/18 141/141/18 140/140/18
f 142/142/18 143/143/18 141/141/18
f 146/146/17 145/145/17 144/144/17
f 146/146/17 147/147/17 145/145/17
f 150/150/16 149/149/16 148/148/16
f 150/150/16 151/151/16 149/149/16
f 154/154/14 153/153/14 152/152/14
f 154/154/14 155/155/14 153/153/14
f 158/158/25 157/157/25 156/156/25
f 158/158/25 159/159/25 157/157/25
f 162/162/9 161/161/9 160/160/9
f 162/162/9 163/163/9 161/161/9
f 166/166/26 165/165/26 164/164/26
f 166/166/26 167/167/26 165/165/26
f 170/170/20 169/169/20 168/168/20
f 170/170/20 171/171/20 169/169/20
f 174/174/21 173/173/21 172/172/21
f 174/174/21 175/175/21 173/173/21
f 178/178/2 177/177/1 176/176/2
f 178/178/2 179/179/1 177/177/1
f 53/53/3 179/179/1 51/51/3
f 53/53/3 177/177/1 179/179/1
f 182/182/5 181/181/5 180/180/5
f 184/184/5 181/181/5 183/183/5
f 186/186/5 181/181/5 185/185/5
f 188/188/5 181/181/5 187/187/5
f 191/191/19 190/190/19 189/189/19
f 194/194/5 193/193/5 192/192/5
f 196/196/19 195/195/19 189/189/19
f 198/198/19 197/197/19 189/189/19
f 200/200/19 199/199/19 189/189/19
f 202/202/19 201/201/19 189/189/19
f 204/204/19 203/203/19 189/189/19
f 206/206/5 181/181/5 205/205/5
f 209/209/19 208/208/19 207/207/19
f 211/211/19 208/208/19 210/210/19
f 213/213/19 208/208/19 212/212/19
f 215/215/19 208/208/19 214/214/19
f 218/218/5 217/217/5 216/216/5
f 220/220/5 219/219/5 216/216/5
f 222/222/5 221/221/5 216/216/5
f 224/224/5 223/223/5 216/216/5
f 227/227/19 226/226/19 225/225/19
f 229/229/5 181/181/5 228/228/5
f 231/231/5 181/181/5 230/230/5
f 233/233/5 232/232/5 192/192/5
f 236/236/5 235/235/5 234/234/5
f 238/238/5 181/181/5 237/237/5
f 240/240/5 235/235/5 239/239/5
f 242/242/5 235/235/5 241/241/5
f 47/47/11 49/49/19 243/243/19
f 245/245/5 235/235/5 244/244/5
f 247/247/5 235/235/5 246/246/5
f 249/249/5 235/235/5 248/248/5
f 251/251/5 235/235/5 250/250/5
f 253/253/5 235/235/5 252/252/5
f 256/256/19 255/255/19 254/254/19
f 258/258/19 255/255/19 257/257/19
f 260/260/19 255/255/19 259/259/19
f 262/262/19 255/255/19 261/261/19
f 264/264/5 263/263/5 192/192/5
f 266/266/5 265/265/5 192/192/5
f 268/268/19 267/267/19 189/189/19
f 270/270/19 269/269/19 189/189/19
f 272/272/19 271/271/19 225/225/19
f 274/274/19 273/273/19 225/225/19
f 276/276/19 275/275/19 225/225/19
f 278/278/19 277/277/19 225/225/19
f 280/280/19 279/279/19 225/225/19
f 282/282/19 281/281/19 225/225/19
f 284/284/19 283/283/19 225/225/19
f 287/287/5 286/286/5 285/285/5
f 115/115/24 286/286/5 109/109/23
f 109/109/23 286/286/5 287/287/5
f 102/102/19 103/103/19 288/288/19
